<?xml version="1.0" encoding="utf-8"?>
<!-- Generator: Adobe Illustrator 26.1.0, SVG Export Plug-In . SVG Version: 6.00 Build 0)  -->
<svg version="1.1" xmlns="http://www.w3.org/2000/svg" xmlns:xlink="http://www.w3.org/1999/xlink" x="0px" y="0px"
	 viewBox="0 0 882.8 1081.6" style="enable-background:new 0 0 882.8 1081.6;" xml:space="preserve">
<style type="text/css">
	.st0{display:none;}
	.st1{display:inline;fill:#231F20;stroke:#000000;stroke-miterlimit:10;}
	.st2{fill:#FFFFFF;}
</style>
<g id="Layer_2" class="st0">
	<rect x="-53.1" y="-33.1" class="st1" width="1081.9" height="1164.9"/>
</g>
<g id="Layer_1">
	<path class="st2" d="M882.6,331.5v674.2c-1.5,3.3-3,6.6-4.5,9.9c-10.5,23.2-28.8,39.4-49.2,53.5c-10.6,7.3-21.8,11.4-34.9,9.8
		c-4.1-0.5-488.5-0.3-709.9-0.3c-5.7,0-12.2-0.4-16.8-3.2c-10.7-6.6-20.5-14.5-30.6-22.2c-22.3-17-34-39.2-34-67.6
		C2.9,688.3,2.9,391.1,2.7,93.8c0-28.9,13.9-50.8,34.9-67.3C52.2,15.1,70.8,8.8,87.5,0.3h448.3c1.1,0.9,2.2,2.4,3.4,2.4
		c20.7,1.1,37.6,12,52.5,24.3c17.6,14.6,32.5,32.5,48.7,48.8c25,25.2,50.1,50.3,75.2,75.3c17.6,17.6,35.1,35.1,52.8,52.5
		c22.7,22.3,44.9,45.2,68.5,66.6C856.3,287.8,872.3,307.3,882.6,331.5z M73,111.6c0.2,141.5,0.1,668.9,0.2,791.1
		c0.1,27,1.8,54.1,2.1,81.1c0.2,13.8,7.6,21.5,19.6,24.5c10.4,2.6,21.3,4.5,32,4.6c188.3,0.3,376.6,0.3,564.9,0.1
		c27.4,0,54.8-2.5,82.1-2c27.9,0.6,38-15.6,38-40.1c0.4-203,0.3-406-0.4-609c0-11.2-5.9-24.6-13.4-33c-20.1-22.2-43-41.8-64.1-63.1
		c-28.8-29-56.7-59-85.7-87.9c-29.5-29.5-59.8-58.3-89.8-87.4c-14.5-14-30.7-23.5-52-22.2c-21.1,1.4-42.3,2.3-63.5,2.4
		C333,71,222.9,71.6,112.9,70.4C84.4,70.2,72.9,84.9,73,111.6z"/>
	<path class="st2" d="M405.3,457.4c0-33.5-0.4-67,0.5-100.4c0.1-5,6.6-9.8,9.9-14.8c7.2-11.3,17.7-12.5,30.3-12.8
		c46-1,86.9,12.9,122.3,41.4c43.8,35.2,71,81.4,82.6,136.3c3.8,17.9,5.4,36.4,7.1,54.7c1.6,17.4-14.7,33.9-32.1,32.7
		c-3.9-0.3-8.2-2.4-11.4-4.8c-23.2-17.5-50.2-26.4-77.8-33.3c-16-4-23.1,2.4-23.1,18.9c0.2,49.6,1.5,99.3,0,148.9
		c-1.2,40.7-21.8,73-52.4,98.5c-23.6,19.8-51.7,30-82.4,30.9c-34.1,1-65.2-9.4-92-30.8c-28.4-22.6-47-51.3-53.1-87.9
		c-6.8-40.8,2.5-77.2,27.3-109.9c24-31.8,56.3-49.9,95.1-55.9c11.8-1.9,24.3-0.5,36.4,0.1c10.1,0.5,14.1-3.3,13.9-13.8
		c-0.4-32.7-0.2-65.4-0.2-98.1L405.3,457.4z M448.7,501.6h0.1c0,36.7,0.2,73.3-0.2,110c-0.1,6.6-2.3,13.2-3.6,19.8
		c-5.9-2.3-12.1-4.2-17.7-7.2c-38.8-20.7-77.5-20.6-113.3,5.1s-50.3,62-41.6,105.5c10.9,54.9,59.1,86.7,107.4,83.4
		c64.6-4.4,96.6-54.2,100.6-105.5c2.7-34.4,0.5-69.2,0.4-103.8c0-28.6,0.1-57.2-0.4-85.8c-0.1-7.3,1.7-11,9.4-11.5
		c43.9-3,85.5,4,123.3,28c2.8,1.8,6.3,2.5,9.5,3.7c0.1-3.5,1.2-7.4,0.2-10.5c-8.2-23.8-14.6-48.6-25.9-70.9
		c-10.1-19.8-22.8-40.8-39.9-54.1c-25.8-20.3-56.5-33.5-89-38.3c-15.6-2.3-19.4,0.3-19.4,16.3C448.7,424.3,448.7,463,448.7,501.6
		L448.7,501.6z"/>
</g>
</svg>
