<?xml version="1.0" encoding="utf-8"?>
<!-- Generator: Adobe Illustrator 26.1.0, SVG Export Plug-In . SVG Version: 6.00 Build 0)  -->
<svg version="1.1" id="Layer_1" xmlns="http://www.w3.org/2000/svg" xmlns:xlink="http://www.w3.org/1999/xlink" x="0px" y="0px"
	 viewBox="0 0 1082.6 1082.6" style="enable-background:new 0 0 1082.6 1082.6;" xml:space="preserve">
<style type="text/css">
	.st0{fill:#FFFFFF;}
</style>
<path class="st0" d="M194.2,474.7c117-1,586.9-0.7,703.6-0.6c5.6,0,14.9,17.2,11.4,21.1c-29.5,33.1-320.7,341.8-346,363.2
	c-6.7,5.6-29.5,8.4-37.5,0.8c-40.9-38.8-317.4-338.4-341.8-367.9C182.8,490,189.7,474.7,194.2,474.7z"/>
<path class="st0" d="M218.4,234.1c0,0,568.8-0.6,688,1.1c8.9,0.1,22.7,15.1,25.2,25.5c4.2,17.1,1.4,36,1,54.2
	c-0.6,29.1-19.9,41.8-54,36.4c-6.7-1.1-441.5-2.1-652.1-2.2c-17.3,0-40.6,2-50.4-7.7c-10.9-10.8-12.3-33.9-12.8-51.8
	C161.9,234.1,162.8,234.1,218.4,234.1z"/>
</svg>
