<?xml version="1.0" encoding="utf-8"?>
<!-- Generator: Adobe Illustrator 26.1.0, SVG Export Plug-In . SVG Version: 6.00 Build 0)  -->
<svg version="1.1" xmlns="http://www.w3.org/2000/svg" xmlns:xlink="http://www.w3.org/1999/xlink" x="0px" y="0px"
	 viewBox="0 0 883.2 1082.2" style="enable-background:new 0 0 883.2 1082.2;" xml:space="preserve">
<style type="text/css">
	.st0{display:none;}
	.st1{display:inline;fill:#231F20;stroke:#000000;stroke-miterlimit:10;}
	.st2{fill:#FFFFFF;}
</style>
<g id="Layer_2" class="st0">
	<rect x="-101.6" y="-232.4" class="st1" width="1134" height="1648.3"/>
</g>
<g id="Layer_1">
	<path class="st2" d="M794.4,1079.5c-4.1-0.5-488.6-0.3-710-0.3c-5.7,0-12.2-0.3-16.8-3.1c-10.7-6.5-20.6-14.5-30.6-22.1
		c-22.7-17.2-34.2-39.8-34.2-68.6C2.9,803.6,3,621.7,2.9,439.9C2.9,325,3.1,210.1,2.7,95.2C2.6,71.6,13.6,53.6,28.5,37.6
		c7.6-8.1,18.4-13.1,26.9-20.5C68.4,5.9,83.8,3,99.8,3C241.4,2.8,383,2.8,524.5,2.9c25.9,0,48.5,10.3,67.5,26.3
		c17.8,15,221.7,221.6,245.3,242.9c19.4,17.5,35.4,37.1,45.8,61.2v673.1c-1.5,3.3-3,6.6-4.5,9.9c-10.6,23.2-28.8,39.3-49.3,53.4
		C818.8,1077,807.6,1081.1,794.4,1079.5z M73.2,538.8v204.2c0,74.8,0,149.5,0,224.3c0,26.9,6.9,39.3,25,43.3c9.5,2,19.2,3,28.9,3
		c187.2,0.2,374.4,0.2,561.6,0c28.6,0,57.2-2.5,85.7-2c27.7,0.5,37.9-15.3,37.9-40.1c0.4-202.7,0.3-405.3-0.4-608
		c0-11.1-5.9-24.6-13.5-32.9c-20.1-22.1-209.6-209-239.7-238C544.2,78.6,464.3,73,443.1,73c-110.1,0.2-220.2,0.8-330.4-0.3
		c-28.4-0.2-39.8,14.5-39.7,40C73.3,254.7,73.3,396.8,73.2,538.8z"/>
	<path class="st2" d="M623.5,791.2H279.1c-10.7,0-21.6,1.4-32-0.4c-10.4-1.9-13.1-11.7-12.6-20.9c0.5-9.1,6.7-13.5,15.8-13.5
		c7.9,0,15.9,0,23.8,0h328c11.1,0,22.2-0.2,33.3-0.1c9,0.1,14.6,4.5,16,13.6c1.5,9.5-3.4,15.8-11.3,19.6
		C635,791.8,623.6,792.3,623.5,791.2z"/>
	<path class="st2" d="M620.2,639.9c-59.4,0.2-299.2,0.1-359.7,0.1c-15,0-22.2-4.9-25.4-17c-2.4-9.2,3-17.3,12.7-17.8
		c9.5-0.5,19-0.1,28.5-0.1h355c9,0,18.7-1.3,20.2,11.7c1.3,11.3-3.8,18-16.5,20.9C630.2,639,625.2,639.8,620.2,639.9z"/>
	<path class="st2" d="M252.9,454c59.8-0.1,316.5,0,379.8,0c15.5,0,23.9,8.4,17.9,20c-3.1,6.1-13.2,11.2-20.5,11.8
		c-16.3,1.4-269.2,0.6-371.8,0.5c-15.3,0-23.6-5.6-24-16C233.8,459.1,239.4,454,252.9,454z"/>
</g>
</svg>
