<svg id="Layer_1" data-name="Layer 1" xmlns="http://www.w3.org/2000/svg" viewBox="0 0 1000 1000"><defs><style>.cls-1{fill:#3e365a;}.cls-2{fill:#fdfdfe;}.cls-3{fill:#fdfdfd;}</style></defs><path class="cls-1" d="M0,1000V0H1000V1000ZM839.88,498.33c-1.25-11.72-2.16-27.9-4.81-43.8-15.49-93.24-61.29-168.38-138.43-222.85-76.86-54.26-162.38-75.13-255.31-55.33-91.89,19.58-164.43,69.26-215.15,148.58-48.39,75.69-65.81,158.24-45.58,246.52,21.32,93,73,165.59,154.8,215.32,67.42,41,140.58,57.61,219.18,45,68.61-11,128.6-40.35,178.9-88.38C802,678,836.41,597.16,839.88,498.33Z"/><path class="cls-2" d="M839.88,498.33C836.41,597.16,802,678,733.48,743.4c-50.3,48-110.29,77.38-178.9,88.38-78.6,12.6-151.76-4-219.18-45C253.62,737,201.92,664.49,180.6,571.45c-20.23-88.28-2.81-170.83,45.58-246.52,50.72-79.32,123.26-129,215.15-148.58,92.93-19.8,178.45,1.07,255.31,55.33,77.14,54.47,122.94,129.61,138.43,222.85C837.72,470.43,838.63,486.61,839.88,498.33ZM584.51,254.09c-15.54,1.61-31.25,2.23-46.58,5C461,272.87,402.78,314.13,364.2,381.85c-30.55,53.62-38,111.92-27.16,172.07,14.7,81.39,59.92,141.22,133.65,178.43C527.57,761.06,588.22,766,649.16,750.1c88.5-23.07,147.26-79.87,175.61-166.91,13-39.78,14-80.86,7.29-122.05-8.95-54.6-33.78-101.08-74-138.82C709.44,276.72,651.12,255.12,584.51,254.09Z"/><path class="cls-1" d="M584.51,254.09c66.61,1,124.93,22.63,173.53,68.23,40.24,37.74,65.07,84.22,74,138.82,6.75,41.19,5.67,82.27-7.29,122.05-28.35,87-87.11,143.84-175.61,166.91-60.94,15.89-121.59,11-178.47-17.75C397,695.14,351.74,635.31,337,553.92c-10.86-60.15-3.39-118.45,27.16-172.07,38.58-67.72,96.78-109,173.73-122.78C553.26,256.32,569,255.7,584.51,254.09ZM498.39,548.53a47.84,47.84,0,0,0,40.53-31.69c1.6-4.55,2.79-9.83,2.13-14.49-2.47-17.51-12.57-29.9-28.63-36.76a40.12,40.12,0,0,0-18.31-2.95c-9.28.76-17.49,5.47-24.05,12.1-10,10.17-17.27,21.9-13.89,37C461,533,479.6,546.93,498.39,548.53Zm181.36-86.72c-15.08,1.94-27.53,9.34-35.84,23-5,8.23-8.26,16.9-5.87,27,8.1,34.17,45.57,47.12,70.42,23.9,10-9.35,17-21,14.38-35.39C718.68,477.59,699,463.39,679.75,461.81Z"/><path class="cls-3" d="M498.39,548.53C479.6,546.93,461,533,456.17,511.71c-3.38-15.07,3.85-26.8,13.89-37,6.56-6.63,14.77-11.34,24.05-12.1a40.12,40.12,0,0,1,18.31,2.95c16.06,6.86,26.16,19.25,28.63,36.76.66,4.66-.53,9.94-2.13,14.49A47.84,47.84,0,0,1,498.39,548.53Z"/><path class="cls-3" d="M679.75,461.81c19.26,1.58,38.93,15.78,43.09,38.5,2.65,14.43-4.36,26-14.38,35.39C683.61,558.92,646.14,546,638,511.8c-2.39-10.06.88-18.73,5.87-27C652.22,471.15,664.67,463.75,679.75,461.81Z"/></svg>
